<?xml version="1.0" encoding="utf-8"?>
<!-- Generator: Adobe Illustrator 24.1.2, SVG Export Plug-In . SVG Version: 6.00 Build 0)  -->
<svg version="1.1" id="Layer_1" xmlns="http://www.w3.org/2000/svg" xmlns:xlink="http://www.w3.org/1999/xlink" x="0px" y="0px"
	 viewBox="0 0 500 500" style="enable-background:new 0 0 500 500;" xml:space="preserve">
<style type="text/css">
	.st0{fill:#231F20;}
</style>
<g>
	<path class="st0" d="M250,1C112.5,1,1,112.5,1,250c0,137.5,111.5,249,249,249s249-111.5,249-249C499,112.5,387.5,1,250,1z
		 M257.9,424.3c-2.4,1.7-5.2,2.5-8.1,2.5c-2.9,0-5.7-0.8-8.1-2.5C113.1,335,102.8,248.2,102.8,143.8c0-6.6,4.7-12.3,11.2-13.6
		c45.6-9.9,89-28.3,127.7-54.3c4.9-3.5,11.5-3.5,16.4,0c38.8,26.1,82.2,44.5,127.9,54.3c6.5,1.3,11.2,6.9,11.2,13.6
		C397.2,248.2,386.9,335,257.9,424.3z"/>
	<polygon class="st0" points="324.4,229.5 270.5,229.5 270.5,175.6 229.5,175.6 229.5,229.5 175.6,229.5 175.6,270.5 229.5,270.5 
		229.5,324.4 270.5,324.4 270.5,270.5 324.4,270.5 	"/>
</g>
</svg>
